# xmcd
#
# Track frame offsets:
#	150
#	13712
#	28370
#	44732
#	61607
#	77152
#	91660
#	108145
#	125365
#	139320
#	151372
#	168227
#
# Disc length: 2496 seconds
#
# Revision: 0
# Processed by: cddbd v1.4PL0 Copyright (c) Steve Scherf et al.
# Submitted via: EasyCDDAExtractor 5.0.5.1
#
DISCID=9409be0c
DTITLE=Country Express - Once Again
DYEAR=1900
DGENRE=Country
TTITLE0=One More Last Change
TTITLE1=Once Again Is Once Too Much
TTITLE2=Everybody Needs A Friend
TTITLE3=Country Boogie Woogie
TTITLE4=Saddle The Stallion
TTITLE5=Longing To Get There Again
TTITLE6=I Don't Wanna Be Alone
TTITLE7=For Reasons I've Forgotten
TTITLE8=The Boy Makes Rock'n'Roll
TTITLE9=Say Hello
TTITLE10=Please Mr. Please
TTITLE11=Try Me Out
EXTD=
EXTT0=
EXTT1=
EXTT2=
EXTT3=
EXTT4=
EXTT5=
EXTT6=
EXTT7=
EXTT8=
EXTT9=
EXTT10=
EXTT11=
PLAYORDER=
